<svg xmlns="http://www.w3.org/2000/svg" viewBox="0 0 32 32" id="loan">
  <path fill="#8b6946" d="M17.226 3.804v-.5a1 1 0 0 1 2 0v.5"></path>
  <path fill="#8b6946" d="m20.726 15.304 1.5 2 4.2 5.6c1.978 2.637.096 6.4-3.2 6.4h-11c-3.296 0-5.178-3.763-3.2-6.4l4.2-5.6 1.5-2 1-5 .5-3-.5-2-.5-1.5v-.5a1 1 0 0 1 2 0v.5h2v-.5a1 1 0 0 1 2 0v.5l-.5 1.5-.5 2 .5 8z"></path>
  <path fill="#75563a" d="M20.551 12.506a.972.972 0 0 0-.571-.201.974.974 0 0 0 .547-.185l-.106-1.701a.978.978 0 0 0-.441-.113.985.985 0 0 0 .427-.104l-.181-2.896.25-1h-2.289a2.27 2.27 0 0 1-2.175-1.618l-.262-.875v-.5c0-.467.327-.842.76-.952-.092-.028-.183-.057-.284-.057a1 1 0 0 0-1 1v.5l.5 1.5.25 1 .25 1-.5 3-1 5-1.5 2-4.2 5.6c-1.978 2.637-.096 6.4 3.2 6.4h.4c-3.218-.094-5.029-3.788-3.077-6.391l4.2-5.6 1.5-2 .202-1.009h4.528c.259 0 .49-.105.667-.266l-.095-1.532z"></path>
  <path fill="#75563a" d="m20.726 15.304-.438-7h-4.062l-.1-.4-.4 2.4-.099.496-.901 4.504-1.5 2-4.2 5.6c-1.978 2.637-.096 6.4 3.2 6.4h2c-3.296 0-4.99-3.632-3.2-6.4.594-.919 1.656-2.841 2.563-4.522a3.957 3.957 0 0 1 3.486-2.078h3.611a.98.98 0 0 0 .617-.232l-.577-.768z"></path>
  <path fill="#75563a" d="M15.833 17.804a.498.498 0 0 1-.476-.65l.608-1.927v-.423a.5.5 0 0 1 .499-.5l2.524-.004h.001a.498.498 0 0 1 .5.5v.427l.608 1.927a.5.5 0 1 1-.954.301l-.631-2a.515.515 0 0 1-.023-.15v-.003l-1.524.003a.505.505 0 0 1-.023.15l-.632 2a.503.503 0 0 1-.477.349z"></path>
  <path fill="#75563a" d="M17.726 17.804a.5.5 0 0 1-.5-.5v-2a.5.5 0 0 1 1 0v2a.5.5 0 0 1-.5.5z"></path>
  <path fill="#f0caaf" d="M21.685 10.304a1 1 0 0 0-1-1 1 1 0 0 0 0-2h-4.459l-.5-2h-1.341a.998.998 0 0 0-.894.553l-.447.894a1 1 0 0 1-.894.553H9.726v7h2.627c.265 0 .52.105.707.293l.414.414a1 1 0 0 0 .707.293h6.504a1 1 0 0 0 0-2 1 1 0 0 0 0-2 1 1 0 0 0 1-1z"></path>
  <path fill="#75563a" d="M18.488 2.357c-.085-.024-.169-.053-.262-.053a1 1 0 0 0-1 1v.5h.524v-.5c0-.459.316-.83.738-.947zm2 0c-.085-.024-.169-.053-.262-.053a1 1 0 0 0-1 1v.5h.524v-.5c0-.459.316-.83.738-.947zm-4 0c-.085-.024-.169-.053-.262-.053a1 1 0 0 0-1 1v.5h.524v-.5c0-.459.316-.83.738-.947z"></path>
  <path fill="#eff2fa" d="M19.726 21.792h-.549a2.484 2.484 0 0 0-.464-1.016h1.013a.5.5 0 0 0 0-1h-4a.5.5 0 0 0 0 1h1c.657 0 1.21.427 1.413 1.016h-2.413a.5.5 0 0 0 0 1h2.403a1.497 1.497 0 0 1-1.403.984h-1a.5.5 0 0 0-.5.5l.002.008a.493.493 0 0 0 .145.361l3 3a.498.498 0 0 0 .708 0 .5.5 0 0 0 0-.707l-2.18-2.18a2.496 2.496 0 0 0 2.271-1.967h.555a.5.5 0 1 0-.001-.999z"></path>
  <path fill="#f0caaf" d="M18.338 13.304h2.347a1 1 0 0 1 0 2h-2.347m0-4h2.347a1 1 0 0 1 0 2h-2.347m0-4h2.347a1 1 0 0 1 0 2h-2.347"></path>
  <path fill="#e2b698" d="m16.226 7.304-.5-2h-1l.311 1.243a1 1 0 0 0 .97.757h.219zm5.402 2.719a.987.987 0 0 1-.955.777H19v.504h1.685a1 1 0 0 0 1-1c0-.099-.029-.19-.057-.281zm0 2a.987.987 0 0 1-.955.777H19v.504h1.685a1 1 0 0 0 1-1c0-.099-.029-.19-.057-.281zm0 2a.987.987 0 0 1-.955.777h-2.336v.504h2.347a1 1 0 0 0 1-1c.001-.099-.028-.19-.056-.281zm0-6a.984.984 0 0 1-.954.777l-1.819-.002v.504l1.831.002a1 1 0 0 0 1-1c-.001-.099-.03-.19-.058-.281z"></path>
  <path fill="#e2b698" d="M14.103 14.804a.997.997 0 0 1-.707-.293l-.414-.414a1 1 0 0 0-.707-.293H9.726v.5h2.627c.265 0 .52.105.707.293l.414.414a1 1 0 0 0 .707.293h5.586l-.119-.5h-5.545z"></path>
  <path fill="#90cff1" d="M3.767 6.804h6.459a.5.5 0 0 1 .5.5v8a.5.5 0 0 1-.5.5H3.767"></path>
  <path fill="#72b7e5" d="M8.767 12.845V6.804h-5v9h6.459a.5.5 0 0 0 .5-.5v-.5a1.959 1.959 0 0 1-1.959-1.959z"></path>
  <path fill="#4c6d86" d="M1.767 6.304h5.459a.5.5 0 0 1 .5.5v9a.5.5 0 0 1-.5.5H1.767"></path>
  <path fill="#41667d" d="M7.226 6.304h-1.5v6a2 2 0 0 1-2 2H1.767v2h5.459a.5.5 0 0 0 .5-.5v-9a.5.5 0 0 0-.5-.5z"></path>
  <circle cx="9.226" cy="14.304" r=".5" fill="#eff2fa"></circle>
  <path fill="#e2b698" d="M19.121 9.3h-.533a.25.25 0 0 1 0-.5h.533a.25.25 0 0 1 0 .5zm0 2h-.533a.25.25 0 0 1 0-.5h.533a.25.25 0 0 1 0 .5zm0 2h-.533a.25.25 0 0 1 0-.5h.533a.25.25 0 0 1 0 .5z"></path>
</svg>
